<?xml version="1.0" encoding="utf-8"?>
<!-- Generator: Adobe Illustrator 19.0.0, SVG Export Plug-In . SVG Version: 6.00 Build 0)  -->
<svg version="1.1" id="Layer_1" xmlns="http://www.w3.org/2000/svg" xmlns:xlink="http://www.w3.org/1999/xlink" x="0px" y="0px"
	 viewBox="0 0 144 144" style="enable-background:new 0 0 144 144;" xml:space="preserve">
<style type="text/css">
	.st0{fill:#2AABE2;}
	.st1{fill:none;stroke:#000000;stroke-width:9;stroke-linecap:round;stroke-linejoin:round;stroke-miterlimit:10;}
	.st2{fill:none;stroke:#010101;stroke-width:1.5;stroke-linecap:round;stroke-linejoin:round;}
	.st3{fill:none;stroke:#000000;stroke-width:1.5;stroke-linecap:round;stroke-linejoin:round;stroke-miterlimit:10;}
	.st4{fill:none;stroke:#000000;stroke-width:4.5;stroke-linecap:round;stroke-linejoin:round;stroke-miterlimit:10;}
	.st5{fill:#231F20;}
	.st6{fill:none;stroke:#010101;stroke-width:0;stroke-linecap:round;stroke-linejoin:round;}
</style>
<g id="XMLID_2_">
	<path id="XMLID_38_" class="st0" d="M92.5,121.2c-6.7,2.8-13.3,4.1-20.6,4.1c0-17.9,0-35.8,0-53.7C78.8,88.1,85.7,104.7,92.5,121.2
		"/>
	<path id="XMLID_37_" class="st0" d="M125.7,71.6c0,7.3-1.3,13.9-4.1,20.6C105.1,85.3,88.5,78.4,72,71.6H125.7z"/>
	<path id="XMLID_36_" class="st0" d="M72,71.6c-6.9,16.5-13.7,33.1-20.6,49.6c-20.1-8.3-33.2-27.9-33.2-49.7
		C36.1,71.5,54.1,71.6,72,71.6"/>
	<path id="XMLID_35_" class="st0" d="M72,71.6c0-17.9,0-35.8,0-53.7c21.7,0,41.3,13.1,49.6,33.2C105.1,57.8,88.5,64.7,72,71.6"/>
	<path id="XMLID_34_" class="st1" d="M51.4,121.2c-20.1-8.3-33.2-27.9-33.2-49.7"/>
	<path id="XMLID_33_" class="st2" d="M92.2,79.9c1.1-2.7,1.7-5.4,1.7-8.4"/>
	<path id="XMLID_32_" class="st2" d="M107,86.1c2-4.7,2.9-9.4,2.9-14.5"/>
	<path id="XMLID_31_" class="st2" d="M72,109.5c5.1,0,9.8-0.9,14.5-2.9"/>
	<path id="XMLID_30_" class="st2" d="M50.1,71.6c0,8.9,5.3,16.8,13.5,20.2"/>
	<path id="XMLID_29_" class="st2" d="M34,71.5c0,15.3,9.2,29.2,23.4,35.1"/>
	<path id="XMLID_28_" class="st2" d="M113,54.6c-6.9-16.6-23-27.4-41-27.4"/>
	<path id="XMLID_27_" class="st2" d="M98.7,60.5c-4.5-10.8-15-17.9-26.8-17.9"/>
	<path id="XMLID_26_" class="st1" d="M125.7,71.6c0,7.3-1.3,13.9-4.1,20.6"/>
	<path id="XMLID_25_" class="st1" d="M72,17.8c21.7,0,41.3,13.1,49.7,33.2"/>
	<path id="XMLID_24_" class="st1" d="M92.5,121.2c-6.7,2.8-13.3,4.1-20.6,4.1"/>
	<line id="XMLID_23_" class="st3" x1="25.8" y1="117.7" x2="72" y2="71.6"/>
	<line id="XMLID_22_" class="st3" x1="11.7" y1="96.5" x2="72" y2="71.6"/>
	<line id="XMLID_21_" class="st3" x1="118.1" y1="25.4" x2="72" y2="71.6"/>
	<line id="XMLID_20_" class="st3" x1="96.9" y1="11.2" x2="72" y2="71.6"/>
	<path id="XMLID_19_" d="M117.9,117.9c0,0-3.1-2.6-7.8-6.7c-2.3-2-5-4.4-7.9-6.9c-2.9-2.5-5.9-5.3-8.9-8c-3-2.8-6.3-5.3-9-8
		c-2.7-2.7-5-5.5-6.9-7.9c-1.9-2.5-3.3-4.6-4.3-6.2c-1-1.6-1.4-2.5-1.4-2.5c-0.1-0.2,0-0.3,0.1-0.4c0.1,0,0.2,0,0.3,0
		c0,0,1,0.5,2.5,1.4c1.6,0.9,3.7,2.4,6.2,4.3c2.4,1.9,5.2,4.2,7.9,6.9c2.7,2.7,5.2,6,8,9c2.7,3,5.5,6,8,8.9c2.6,2.9,4.9,5.6,6.9,7.9
		c4,4.6,6.7,7.8,6.7,7.8c0.1,0.1,0.1,0.3,0,0.4C118.2,118,118,118,117.9,117.9"/>
	<line id="XMLID_18_" class="st4" x1="72" y1="71.6" x2="23.9" y2="33.5"/>
	<line id="XMLID_17_" class="st4" x1="72" y1="71.6" x2="38.2" y2="21.2"/>
	<path id="XMLID_16_" class="st5" d="M45.6,21.2c0-3.9-3.2-7.1-7.1-7.1c-3.9,0-7.1,3.2-7.1,7.1s3.2,7.1,7.1,7.1
		C42.4,28.4,45.6,25.2,45.6,21.2"/>
	<path id="XMLID_15_" d="M45.6,21.2c0,3.9-3.2,7.1-7.1,7.1c-3.9,0-7.1-3.2-7.1-7.1s3.2-7.1,7.1-7.1C42.4,14.1,45.6,17.3,45.6,21.2"
		/>
	<path id="XMLID_14_" class="st6" d="M45.6,21.2c0,3.9-3.2,7.1-7.1,7.1c-3.9,0-7.1-3.2-7.1-7.1s3.2-7.1,7.1-7.1
		C42.4,14.1,45.6,17.3,45.6,21.2z"/>
	<path id="XMLID_13_" d="M32.4,33c0-4.4-3.5-7.9-7.9-7.9c-4.4,0-7.9,3.5-7.9,7.9c0,4.4,3.5,7.9,7.9,7.9C28.9,40.9,32.4,37.4,32.4,33
		"/>
	<path id="XMLID_12_" class="st6" d="M32.4,33c0,4.4-3.5,7.9-7.9,7.9c-4.4,0-7.9-3.5-7.9-7.9c0-4.4,3.5-7.9,7.9-7.9
		C28.9,25.1,32.4,28.7,32.4,33z"/>
	<line id="XMLID_11_" class="st4" x1="72" y1="71.6" x2="72" y2="6.3"/>
	<line id="XMLID_10_" class="st4" x1="132.3" y1="46.6" x2="72" y2="71.6"/>
	<line id="XMLID_9_" class="st4" x1="137.2" y1="71.6" x2="72" y2="71.6"/>
	<line id="XMLID_8_" class="st4" x1="132.3" y1="96.5" x2="72" y2="71.6"/>
	<line id="XMLID_7_" class="st4" x1="71.9" y1="136.8" x2="72" y2="71.6"/>
	<line id="XMLID_6_" class="st4" x1="96.9" y1="131.9" x2="72" y2="71.6"/>
	<line id="XMLID_5_" class="st4" x1="47" y1="131.9" x2="72" y2="71.6"/>
	<line id="XMLID_4_" class="st4" x1="72" y1="71.6" x2="6.7" y2="71.5"/>
	<path id="XMLID_3_" d="M81.7,71.7c0,5.3-4.3,9.6-9.6,9.6c-5.3,0-9.6-4.3-9.6-9.6c0-5.3,4.3-9.6,9.6-9.6
		C77.4,62.1,81.7,66.4,81.7,71.7"/>
</g>
</svg>
