<?xml version="1.0" encoding="utf-8"?>
<!-- Generator: Adobe Illustrator 19.0.0, SVG Export Plug-In . SVG Version: 6.00 Build 0)  -->
<svg version="1.1" id="Layer_1" xmlns="http://www.w3.org/2000/svg" xmlns:xlink="http://www.w3.org/1999/xlink" x="0px" y="0px"
	 viewBox="0 0 144 144" style="enable-background:new 0 0 144 144;" xml:space="preserve">
<style type="text/css">
	.st0{fill:none;stroke:#000000;stroke-width:7.5;stroke-linecap:round;stroke-miterlimit:10;}
	.st1{fill:#00A651;}
	.st2{fill:none;stroke:#000000;stroke-width:4.5;stroke-linecap:round;stroke-linejoin:round;stroke-miterlimit:10;}
	.st3{fill:none;stroke:#000000;stroke-width:4.5;stroke-linecap:round;stroke-miterlimit:10;}
	.st4{fill:none;stroke:#000000;stroke-width:9;stroke-linecap:round;stroke-linejoin:round;stroke-miterlimit:10;}
	.st5{fill:none;stroke:#000000;stroke-width:1.5;stroke-linecap:round;stroke-miterlimit:10;}
</style>
<g id="XMLID_2_">
	<path id="XMLID_66_" d="M122.8,123.6c0,0-2.4-0.4-5.9-1.7c-3.5-1.3-8-3.7-12.7-7.3c-1.2-0.9-2.3-1.9-3.5-2.9
		c-1.2-1-2.3-2.2-3.3-3.5c-2.1-2.6-3.6-6.1-5.2-9.6c-1.6-3.5-3.7-6.8-6.5-9.4c-2.8-2.7-6.1-4.8-9.8-6.6c-3.7-1.8-7.3-3.7-10.4-6
		c-3.1-2.3-6.1-4.6-9-6.9c-2.8-2.3-5.4-4.8-7.5-7.4c-2.2-2.6-4-5.2-5.7-7.7c-3.3-5-5.5-9.6-6.9-13.1c-1.4-3.5-1.9-5.7-1.9-5.7
		l1.3-1.3c0,0,2.3,0.5,5.7,1.8c3.5,1.3,8.1,3.6,13.1,6.8c2.5,1.6,5.1,3.5,7.7,5.6c2.6,2.1,5.1,4.6,7.4,7.5c2.3,2.8,4.6,5.9,7,8.9
		c2.4,3.1,4.2,6.7,6.1,10.4c1.8,3.7,4,7,6.7,9.8c2.6,2.8,5.9,4.9,9.4,6.5c3.5,1.6,7,3.1,9.7,5.2c1.3,1,2.5,2.2,3.5,3.3
		c1.1,1.2,2,2.3,2.9,3.5c3.6,4.7,6,9.2,7.3,12.7c1.4,3.5,1.7,5.9,1.7,5.9L122.8,123.6z"/>
	<line id="XMLID_65_" class="st0" x1="115.5" y1="115" x2="40.9" y2="40.6"/>
	<path id="XMLID_64_" class="st1" d="M53.5,55.6l-8.6-8L17.8,76.5c0,12.1,1,14.3,10.8,27.8L53.5,55.6z"/>
	<polyline id="XMLID_63_" class="st1" points="44.3,116.9 50,52.6 62.9,63.9 69.5,90.1 68.4,122.3 	"/>
	<path id="XMLID_62_" class="st1" d="M55.5,53.5l-8-8.6l28.9-27.1c12.1,0,14.3,1,27.8,10.8L55.5,53.5z"/>
	<polyline id="XMLID_61_" class="st1" points="116.7,44.3 52.5,50.1 63.8,63 90,69.5 122.1,68.5 	"/>
	<path id="XMLID_60_" d="M41.7,41.9c0,4.9-4,8.9-8.9,8.9c-4.9,0-8.9-4-8.9-8.9c0-4.9,4-8.9,8.9-8.9C37.7,33,41.7,37,41.7,41.9"/>
	<path id="XMLID_59_" d="M50.8,32.1c0,4.4-3.6,8-8,8c-4.4,0-8-3.6-8-8c0-4.4,3.6-8,8-8C47.3,24.1,50.8,27.7,50.8,32.1"/>
	<polyline id="XMLID_58_" class="st2" points="71,137.1 69.5,91.5 63.8,63.4 	"/>
	<line id="XMLID_57_" class="st2" x1="44" y1="133.9" x2="51.5" y2="54.1"/>
	<polyline id="XMLID_56_" class="st2" points="19.8,116.4 43.7,79.9 52,51.1 	"/>
	<line id="XMLID_55_" class="st2" x1="7" y1="90.6" x2="44.8" y2="47.6"/>
	<line id="XMLID_54_" class="st3" x1="43.6" y1="43.1" x2="112.6" y2="111.9"/>
	<path id="XMLID_53_" class="st4" d="M29.8,105.8c-6.5-7.3-11-16.4-12.8-26.4"/>
	<path id="XMLID_52_" class="st4" d="M74.4,123.6c-1.5,0.1-2.9,0.2-4.4,0.2c-8.9,0-17.3-2.2-24.6-6"/>
	<polyline id="XMLID_51_" class="st2" points="137,71 91.3,69.6 63.8,63 	"/>
	<line id="XMLID_50_" class="st2" x1="133.8" y1="44.1" x2="54" y2="51.6"/>
	<polyline id="XMLID_49_" class="st2" points="116.3,19.9 79.7,43.7 51,52 	"/>
	<line id="XMLID_48_" class="st2" x1="90.5" y1="7" x2="47.5" y2="44.9"/>
	<path id="XMLID_47_" class="st4" d="M105.6,29.9c-7.3-6.5-16.4-11-26.4-12.8"/>
	<path id="XMLID_46_" class="st4" d="M123.5,74.5c0.1-1.5,0.2-2.9,0.2-4.4c0-8.9-2.2-17.3-6-24.6"/>
	<line id="XMLID_45_" class="st5" x1="62.3" y1="63.6" x2="54.5" y2="119.1"/>
	<line id="XMLID_44_" class="st5" x1="67.1" y1="88.4" x2="55.7" y2="87.9"/>
	<line id="XMLID_43_" class="st5" x1="55.7" y1="87.9" x2="52.2" y2="91.2"/>
	<line id="XMLID_42_" class="st5" x1="52.2" y1="91.2" x2="49.4" y2="93.7"/>
	<line id="XMLID_41_" class="st5" x1="70.6" y1="99.9" x2="49.5" y2="97.9"/>
	<line id="XMLID_40_" class="st5" x1="36" y1="91.1" x2="23.3" y2="78.6"/>
	<line id="XMLID_39_" class="st5" x1="69.1" y1="89.5" x2="65.6" y2="111.8"/>
	<line id="XMLID_38_" class="st5" x1="65.6" y1="111.8" x2="51.5" y2="108.3"/>
	<line id="XMLID_37_" class="st5" x1="61.6" y1="109.1" x2="63.3" y2="98.7"/>
	<line id="XMLID_36_" class="st5" x1="60.1" y1="78.4" x2="49.9" y2="78.6"/>
	<line id="XMLID_35_" class="st5" x1="57.9" y1="71.7" x2="50.3" y2="71.9"/>
	<line id="XMLID_34_" class="st5" x1="59" y1="122.3" x2="61.5" y2="109.5"/>
	<line id="XMLID_33_" class="st5" x1="60.7" y1="119.7" x2="54.5" y2="119.1"/>
	<line id="XMLID_32_" class="st5" x1="72.7" y1="125.8" x2="66.2" y2="112.5"/>
	<line id="XMLID_31_" class="st5" x1="71.6" y1="106.2" x2="57.4" y2="104.2"/>
	<line id="XMLID_30_" class="st5" x1="88.8" y1="24.3" x2="84.4" y2="39.1"/>
	<line id="XMLID_29_" class="st5" x1="87.3" y1="29.3" x2="77.5" y2="21.7"/>
	<line id="XMLID_28_" class="st5" x1="81.1" y1="25.3" x2="71" y2="36.4"/>
	<line id="XMLID_27_" class="st5" x1="73.2" y1="29.7" x2="82.7" y2="39.6"/>
	<line id="XMLID_26_" class="st5" x1="73.4" y1="44.5" x2="62.5" y2="33.6"/>
	<line id="XMLID_25_" class="st5" x1="64.7" y1="47.9" x2="64.8" y2="61.1"/>
	<line id="XMLID_24_" class="st5" x1="56.5" y1="38.2" x2="62.7" y2="47.8"/>
	<line id="XMLID_23_" class="st5" x1="123.7" y1="53.1" x2="109.4" y2="58.9"/>
	<line id="XMLID_22_" class="st5" x1="109.2" y1="59.2" x2="115.5" y2="45"/>
	<line id="XMLID_21_" class="st5" x1="112.8" y1="49.9" x2="107.8" y2="48.6"/>
	<line id="XMLID_20_" class="st5" x1="99.6" y1="67.7" x2="97.5" y2="46"/>
	<line id="XMLID_19_" class="st5" x1="105" y1="45.5" x2="92.1" y2="49.4"/>
	<line id="XMLID_18_" class="st5" x1="92.7" y1="54" x2="92.2" y2="47.2"/>
	<line id="XMLID_17_" class="st5" x1="84.2" y1="47.3" x2="72.6" y2="63.5"/>
	<line id="XMLID_16_" class="st5" x1="84.4" y1="47.6" x2="87.6" y2="66.6"/>
	<line id="XMLID_15_" class="st5" x1="79.2" y1="53.4" x2="71" y2="52.8"/>
	<line id="XMLID_14_" class="st5" x1="71.4" y1="48.7" x2="69.5" y2="63.1"/>
	<line id="XMLID_13_" class="st5" x1="120.1" y1="60.7" x2="117.2" y2="70.7"/>
	<line id="XMLID_12_" class="st5" x1="26.4" y1="81.7" x2="48.6" y2="59.5"/>
	<line id="XMLID_11_" class="st5" x1="44.3" y1="75.5" x2="32.2" y2="62.9"/>
	<line id="XMLID_10_" class="st5" x1="35.7" y1="65.5" x2="41.1" y2="60.1"/>
	<line id="XMLID_9_" class="st5" x1="108.3" y1="69.2" x2="109" y2="59.3"/>
	<line id="XMLID_8_" class="st5" x1="109" y1="59.3" x2="101.9" y2="58"/>
	<line id="XMLID_7_" class="st5" x1="101.9" y1="58" x2="101.6" y2="54.1"/>
	<line id="XMLID_6_" class="st5" x1="33.8" y1="74.4" x2="26.7" y2="67.3"/>
	<line id="XMLID_5_" class="st5" x1="120.4" y1="48.9" x2="113.6" y2="50.1"/>
	<line id="XMLID_4_" class="st5" x1="101.9" y1="58" x2="87.7" y2="66.3"/>
	<line id="XMLID_3_" class="st5" x1="93.4" y1="62.2" x2="85.8" y2="55.6"/>
</g>
</svg>
