<?xml version="1.0" encoding="utf-8"?>
<!-- Generator: Adobe Illustrator 19.0.0, SVG Export Plug-In . SVG Version: 6.00 Build 0)  -->
<svg version="1.1" id="Layer_1" xmlns="http://www.w3.org/2000/svg" xmlns:xlink="http://www.w3.org/1999/xlink" x="0px" y="0px"
	 viewBox="0 0 144 144" style="enable-background:new 0 0 144 144;" xml:space="preserve">
<style type="text/css">
	.st0{fill:none;stroke:#000000;stroke-width:4.5;stroke-linecap:round;stroke-linejoin:round;stroke-miterlimit:10;}
	.st1{fill:none;stroke:#000000;stroke-width:4.5;stroke-linecap:round;stroke-linejoin:round;stroke-dasharray:18,6;}
	.st2{fill:#F3B24C;}
	.st3{fill:none;stroke:#000000;stroke-width:9;stroke-linecap:round;stroke-linejoin:round;stroke-miterlimit:10;}
	.st4{fill:none;stroke:#000000;stroke-width:13.5;stroke-miterlimit:10;}
</style>
<g id="XMLID_2_">
	<line id="XMLID_17_" class="st0" x1="71.8" y1="137.6" x2="71.8" y2="5.6"/>
	<line id="XMLID_16_" class="st0" x1="137.7" y1="71.6" x2="5.7" y2="71.6"/>
	<line id="XMLID_15_" class="st1" x1="113.6" y1="115.2" x2="101.3" y2="102.9"/>
	<path id="XMLID_14_" d="M112.3,113.9c-6.6,0-14.8,5-19.5,9.4c10.7-1.6,21.9-1,32.1,3.2c-4.3-10-4.3-21.4-3.2-32.1
		C117.3,99.7,112.5,106.8,112.3,113.9"/>
	<path id="XMLID_13_" class="st2" d="M125.3,72.4c0,29.7-24.1,53.7-53.7,53.7c-29.7,0-53.7-24.1-53.7-53.7s24.1-53.7,53.7-53.7
		C101.2,18.7,125.3,42.7,125.3,72.4"/>
	<path id="XMLID_12_" class="st3" d="M125.3,72.4c0,29.7-24.1,53.7-53.7,53.7c-29.7,0-53.7-24.1-53.7-53.7s24.1-53.7,53.7-53.7
		C101.2,18.7,125.3,42.7,125.3,72.4z"/>
	<path id="XMLID_11_" d="M32,33.9c0,4.4-3.5,7.9-7.9,7.9c-4.4,0-7.9-3.5-7.9-7.9c0-4.4,3.5-7.9,7.9-7.9C28.4,25.9,32,29.5,32,33.9"
		/>
	<path id="XMLID_10_" d="M45.2,22.1c0,3.9-3.2,7.1-7.1,7.1c-3.9,0-7.1-3.2-7.1-7.1S34.1,15,38,15C42,15,45.2,18.2,45.2,22.1"/>
	<line id="XMLID_9_" class="st4" x1="33.6" y1="110.5" x2="109.3" y2="36.1"/>
	<line id="XMLID_8_" class="st4" x1="20" y1="87.9" x2="86.8" y2="22.3"/>
	<line id="XMLID_7_" class="st4" x1="57.1" y1="124.1" x2="123.1" y2="59.4"/>
	<path id="XMLID_6_" class="st2" d="M80.5,19.6c5.5-10.9,55-7.4,55.5,7C137.1,57.2,80.2,46.6,80.5,19.6"/>
	<path id="XMLID_5_" d="M83.4,19.1c5.1-8.4,25.5-4.6,33.2-3c10.5,2.2,20,7.4,15,19.5c-4.8,11.6-20.7,9.1-29.9,5.5
		c-9.6-3.7-18.1-11.5-18.3-22.3c0-0.9-5.8-0.1-5.8,1.6c0.5,25.5,49.9,37.8,60.1,13.1c6.5-15.8-14.1-19.8-25.2-21
		c-9.3-1-29-2.1-34.8,7.6C77.3,20.8,82.5,20.5,83.4,19.1"/>
	<path id="XMLID_4_" class="st2" d="M17.3,84c-9.7,7.4,2.8,55.4,17.1,53.2C64.8,132.7,43.9,78.7,17.3,84"/>
	<path id="XMLID_3_" d="M15.4,82.8c-9.3,8.3-3.2,27.8,0.3,37.4c4.4,12.4,12.3,23.6,26.3,16.8c12.7-6.1,11.5-22.4,7-33.3
		C44,91.1,32,79.6,17.6,82c-3.1,0.5-4.5,4.8-0.5,4.2c19.7-3.3,40.8,32.9,23.8,46.6c-11,8.8-17.8-9.2-20.4-17
		c-2.2-6.6-7.8-24.6-1.2-30.4C22.2,82.7,17.6,80.8,15.4,82.8"/>
</g>
</svg>
