<?xml version="1.0" encoding="utf-8"?>
<!-- Generator: Adobe Illustrator 19.0.0, SVG Export Plug-In . SVG Version: 6.00 Build 0)  -->
<svg version="1.1" id="Layer_1" xmlns="http://www.w3.org/2000/svg" xmlns:xlink="http://www.w3.org/1999/xlink" x="0px" y="0px"
	 viewBox="0 0 144 144" style="enable-background:new 0 0 144 144;" xml:space="preserve">
<style type="text/css">
	.st0{fill:none;stroke:#000000;stroke-width:14.1019;stroke-miterlimit:10;}
	.st1{fill:none;stroke:#FFFFFF;stroke-width:17.5959;stroke-linecap:round;stroke-linejoin:round;stroke-miterlimit:10;}
	
		.st2{fill:none;stroke:#FFFFFF;stroke-width:13.1969;stroke-linecap:round;stroke-linejoin:round;stroke-miterlimit:10;stroke-dasharray:17.5959,5.8653;}
	.st3{fill:none;stroke:#FFFFFF;stroke-width:8.7979;stroke-miterlimit:10;}
	
		.st4{fill:none;stroke:#000000;stroke-width:4.399;stroke-linecap:round;stroke-linejoin:round;stroke-miterlimit:10;stroke-dasharray:17.5959,5.8653;}
	.st5{fill:#ED1C24;stroke:#000000;stroke-width:8.7979;stroke-linecap:round;stroke-linejoin:round;stroke-miterlimit:10;}
	.st6{fill:none;stroke:#000000;stroke-width:4.399;stroke-miterlimit:10;}
	.st7{fill:none;stroke:#000000;stroke-width:2.9327;stroke-miterlimit:10;}
	.st8{fill:none;stroke:#000000;stroke-width:13.1969;stroke-miterlimit:10;}
</style>
<path class="st0" d="M72,72C72,72,72,72,72,72"/>
<g>
	<path class="st1" d="M125.3,71.3c0,29-23.5,52.5-52.5,52.5c-29,0-52.5-23.5-52.5-52.5s23.5-52.5,52.5-52.5
		C101.8,18.8,125.3,42.3,125.3,71.3z"/>
	<line class="st2" x1="72.8" y1="136.6" x2="72.8" y2="7.5"/>
	<line class="st2" x1="137.2" y1="72" x2="8.2" y2="72"/>
	<line class="st2" x1="118.3" y1="26.4" x2="27.1" y2="117.7"/>
	<circle class="st3" cx="26.4" cy="33.7" r="7.7"/>
	<circle class="st3" cx="40.1" cy="22.1" r="7"/>
	<line class="st4" x1="72.8" y1="136.6" x2="72.8" y2="7.5"/>
	<line class="st4" x1="137.2" y1="72" x2="8.2" y2="72"/>
	<line class="st4" x1="118.3" y1="26.4" x2="27.1" y2="117.7"/>
	<path class="st5" d="M125.3,71.3c0,29-23.5,52.5-52.5,52.5c-29,0-52.5-23.5-52.5-52.5s23.5-52.5,52.5-52.5
		C101.8,18.8,125.3,42.3,125.3,71.3z"/>
	<line class="st6" x1="36.6" y1="33.3" x2="109.8" y2="108.7"/>
	<circle cx="47.7" cy="104.1" r="4.5"/>
	<circle cx="33.8" cy="95.1" r="4.5"/>
	<circle cx="65.7" cy="104.1" r="4.5"/>
	<circle cx="83.3" cy="97.7" r="4.5"/>
	<circle cx="99.4" cy="83.7" r="4.5"/>
	<circle cx="106.8" cy="66.5" r="4.5"/>
	<circle cx="108.5" cy="48" r="4.5"/>
	<circle cx="100" cy="33.3" r="4.5"/>
	<circle cx="26.4" cy="33.7" r="7.7"/>
	<circle cx="40.1" cy="22.1" r="7"/>
	<ellipse transform="matrix(0.9795 -0.2015 0.2015 0.9795 -21.8874 17.5225)" cx="75.1" cy="116.3" rx="9.5" ry="7.6"/>
	<ellipse cx="111.8" cy="91.2" rx="9.5" ry="9.3"/>
	<ellipse cx="52.2" cy="46.2" rx="11.3" ry="10.4"/>
	<ellipse cx="90.4" cy="59.4" rx="7.1" ry="6.9"/>
	<ellipse cx="81.3" cy="39.4" rx="7.1" ry="6.9"/>
	<ellipse cx="71.2" cy="86.4" rx="9.4" ry="9.2"/>
	<ellipse transform="matrix(0.8612 -0.5082 0.5082 0.8612 -30.862 32.066)" cx="43.3" cy="72.5" rx="13.2" ry="13.2"/>
	<line class="st7" x1="20.3" y1="71.3" x2="125.3" y2="71.3"/>
	<line class="st7" x1="35.8" y1="108.6" x2="109.8" y2="35.8"/>
	<line class="st7" x1="72.8" y1="123.9" x2="72.7" y2="15.2"/>
	<path class="st8" d="M26,95.1C26,95.1,26,95.1,26,95.1"/>
</g>
</svg>
