<?xml version="1.0" encoding="UTF-8"?>
<svg xmlns="http://www.w3.org/2000/svg" height="73" viewBox="0 0 123 73" width="123"><g fill="none" fill-rule="evenodd"><g fill="#6d6865"><path d="m42.142 34.394h1.376v-1.373h-1.376z"/><path d="m43.761 34.394h1.364v-1.373h-1.364z"/><path d="m45.368 34.394h1.374v-1.373h-1.374z"/><path d="m46.982 34.394h1.37v-1.373h-1.37z"/><path d="m42.142 32.807h1.376v-1.373h-1.376z"/><path d="m43.761 32.807h1.364v-1.373h-1.364z"/><path d="m45.368 32.807h1.374v-1.373h-1.374z"/><path d="m46.982 32.807h1.37v-1.373h-1.37z"/><path d="m50.206 32.807h1.373v-1.373h-1.373z"/><path d="m42.142 31.227h1.376v-1.37h-1.376z"/><path d="m43.761 31.227h1.364v-1.37h-1.364z"/><path d="m46.982 31.227h1.37v-1.37h-1.37z"/><path d="m48.592 31.227h1.374v-1.37h-1.374z"/><path d="m50.206 31.227h1.373v-1.37h-1.373z"/><path d="m43.761 29.643h1.364v-1.371h-1.364z"/><path d="m45.368 29.643h1.374v-1.371h-1.374z"/><path d="m46.982 29.643h1.37v-1.371h-1.37z"/><path d="m48.592 29.643h1.374v-1.371h-1.374z"/><path d="m51.817 29.643h1.378v-1.371h-1.378z"/><path d="m43.761 28.062h1.364v-1.372h-1.364z"/><path d="m45.368 28.062h1.374v-1.372h-1.374z"/><path d="m46.982 28.062h1.37v-1.372h-1.37z"/><path d="m48.592 28.062h1.374v-1.372h-1.374z"/><path d="m50.206 28.062h1.373v-1.372h-1.373z"/><path d="m51.817 28.062h1.378v-1.372h-1.378z"/><path d="m53.429 28.062h1.373v-1.372h-1.373z"/><path d="m56.659 28.062h1.372v-1.372h-1.372z"/><path d="m46.982 26.48h1.37v-1.372h-1.37z"/><path d="m48.592 26.48h1.374v-1.372h-1.374z"/><path d="m51.817 26.48h1.378v-1.372h-1.378z"/><path d="m55.043 26.48h1.372v-1.372h-1.372z"/><path d="m45.368 24.899h1.374v-1.373h-1.374z"/><path d="m46.982 24.899h1.37v-1.373h-1.37z"/><path d="m48.592 24.899h1.374v-1.373h-1.374z"/><path d="m50.206 24.899h1.373v-1.373h-1.373z"/><path d="m51.817 24.899h1.378v-1.373h-1.378z"/><path d="m55.043 24.899h1.372v-1.373h-1.372z"/><path d="m63.103 24.899h1.379v-1.373h-1.379z"/><path d="m46.982 23.314h1.37v-1.372h-1.37z"/><path d="m50.206 23.314h1.373v-1.372h-1.373z"/><path d="m53.429 23.314h1.373v-1.372h-1.373z"/><path d="m56.659 23.314h1.372v-1.372h-1.372z"/><path d="m51.817 21.733h1.378v-1.374h-1.378z"/><path d="m55.043 21.733h1.372v-1.374h-1.372z"/><path d="m53.429 20.151h1.373v-1.372h-1.373z"/><path d="m56.659 20.151h1.372v-1.372h-1.372z"/><path d="m59.878 20.151h1.374v-1.372h-1.374z"/><path d="m51.817 18.567h1.378v-1.374h-1.378z"/><path d="m59.878 16.985h1.374v-1.374h-1.374z"/><path d="m64.715 16.985h1.375v-1.374h-1.375z"/><path d="m59.878 15.404h1.374v-1.375h-1.374z"/><path d="m59.878 13.82h1.374v-1.373h-1.374z"/><path d="m61.495 12.239h1.37v-1.375h-1.37z"/></g><path d="m38.38 30.628h3.51v-.658h-3.51z" fill="#181916"/><path d="m34.4682422 15.6750497c-.5640497-.0607578-.5359379.1160745-1.2818074.2362298-.7449628.1224224-1.168.8941366-.4203168.808441.7481367-.0920435 1.0759565-.1201553 1.7338634-.392205.6542795-.2661553-.0317392-.6524658-.0317392-.6524658m.5713044 2.7717329c-.7762485-.0866025-.7145839.1777391-.9295031.2838385-.2684224.1328509.5087329.2539131 1.1090559.229882.5957888-.034913.5957888-.4234907-.1795528-.5137205m6.8878447 16.2123478h5.8830745c-1.6363788 1.8322547-5.4863354 4.934528-14.2087018 8.0304535-15.4664783 5.4976708-30.58246586-1.1022547-21.732236-13.6686833 8.6534472-12.3011801 22.3602173-15.200323 23.794826-15.4383664 1.4300746-.2398572 3.823205-.3885777 2.6583789-.0321926-1.1666397.3631864-3.3453043 1.2591367-3.2215217 1.584236.1178882.3314472 1.5497764-.0272049 2.3509627-.1500807.8107081-.1174348.8107081.4484286.3319006.6905528-.4751801.2362298-.8628509 0-.567677.2951739.302882.3006149.1237826.5069193-.3600124.7182112-.4738199.2090248-1.7887267.1169813-2.2376087.5395652-.4484286.4121553.8329255.4121553 1.7320497.0557702.897764-.3563851 1.1013478-.4470683 2.0929689-.5064659.9820994-.0575838.0571305.5400187.5350311.7476833.478354.208118 2.8986894-.2693292 2.2711615.1151677-.6261677.3912981 1.1952049.3912981-.0625715.7513105-1.2546024.357292-13.0157639 1.6721988-22.0328509 7.5838385-9.0189006 5.910733-10.21138508 18.1497951 5.1362982 15.1051056 11.1894037-2.2203788 15.8695652-7.329472 17.5866521-9.9325341v3.5112546z" fill="#6d6865"/><path d="m22.3089814 30.4890621c0-4.042205 3.2723043-7.3149627 7.3122422-7.3149627 4.0453789 0 7.3185901 3.2727577 7.3185901 7.3149627 0 4.0390311-3.2732112 7.3117888-7.3185901 7.3117888-4.0399379 0-7.3122422-3.2727577-7.3122422-7.3117888" fill="#e27f2d"/><path d="m24.6608509 27.3024534c-.3192049-.7200248.0072547-1.5660994.7272795-1.8902919.7254659-.3178447 1.5733541.005441 1.8943727.7281863.3260062.7231988 0 1.5701802-.7254658 1.8921056-.7227454.3228323-1.571087-.0063478-1.8961864-.73" fill="#fffffe"/><path d="m40.9783913 13.5512484c0-.3291801-1.403323-.3554782-1.611441-.056677-.2072112.2956274-.9535342.1795528-1.0183727.4457081-.0530496.2734099.6302485.208118 1.2264907-.0253913.6025901-.240764 1.403323-.0344596 1.403323-.3636398m1.0460311.9258758c-.2076646-.2362298-1.5833292-.3287267-2.0013789-.1206087-.4203168.2121988-.9562547.4230373-1.2237702.4230373-.2684224 0 .1224224.3278199.837913.3278199.7136771 0 .6261677-.1831802 1.341205-.062118.7168509.1197018 1.2532422-.3269131 1.0460311-.5681305m-2.0013789 1.2536957c-.7422423.1804596-.9227019.2693292-1.3144534.3609192-.3876708.089323-.0276584.3872174.8383664.2072112.8664783-.175472 1.133087-.2375901 1.5506833-.2652484.4221304-.0335528.3591055-.41941-.1505342-.4506957-.5037454-.0281118-.9240621.1478137-.9240621.1478137m3.1643913-.2684224c-.2267081-.3391553-.9263292-.118795-1.2251305.0607578-.2924534.1818199-.2371366.2076646.2693292.297441.5100932.0906832.9716708-.2063044.9558013-.3581988m1.8508447.6878323c-.186354-.0888696-1.6703851.1206087-1.9084286.0612112-.2398571-.0612112-.5685838.2375901-1.0773167.2375901-.5069193 0-1.3103727.0317391-1.0124783.3581987.2997081.3278199 1.5837826.1509876 2.1473789.0285652.573118-.1160745 1.1652795-.3867639 1.7048447-.2661552.5345776.1169813.2212671-.3994597.146-.41941" fill="#6d6865"/><path d="m2.583 30.606h18.031v-.66h-18.031z" fill="#181916"/><path d="m29.309 58.103h.652v-18.032h-.652z" fill="#181916"/><path d="m29.309 20.716h.652v-18.028h-.652z" fill="#181916"/><path d="m51.833 30.628h52.246v-.658h-52.246z" fill="#181916"/><path d="m104.028174 30.2977205c0-.7236522.588081-1.3126398 1.315814-1.3126398.727732 0 1.313093.5889876 1.313093 1.3126398 0 .7268261-.585361 1.3158137-1.313093 1.3158137-.727733 0-1.315814-.5889876-1.315814-1.3158137m-75.7082547-28.88668944c0-.72229193.5830931-1.31173292 1.3126397-1.31173292.7281863 0 1.3167205.58944099 1.3167205 1.31173292 0 .72773292-.5885342 1.31944099-1.3167205 1.31944099-.7295466 0-1.3126397-.59170807-1.3126397-1.31944099" fill="#bf282b"/><path d="m46.7032236 53.7053292c0-.4021801-.1088199-.7200249-.3273665-.9512671-.2217205-.2330559-.5572484-.348677-1.0079441-.348677h-2.9861987v2.6352547h2.9630745c.4638447 0 .8093478-.1251429 1.0310683-.3763355.2185466-.2543664.3273665-.5713043.3273665-.9589751m-.3133106-5.2247143c0-.2978944-.0798012-.5545279-.2480186-.7640062-.1686708-.2063044-.4756335-.3114969-.9308633-.3114969h-2.8293168v2.1528199h2.8293168c.4411739 0 .7481366-.0974845.9227018-.2965342.1718447-.1936087.2561801-.4547764.2561801-.7807826m3.9973168 5.1553416c0 1.3915342-.421677 2.4661305-1.2600435 3.2269628-.8424472.7644596-2.1201739 1.1453291-3.8390745 1.1453291h-6.5124161v-13.5666645h6.5554906c1.6758261 0 2.8891677.3037888 3.6327702.9122732.7395218.6089379 1.1154037 1.4799504 1.1154037 2.620292 0 .7395217-.1623229 1.3053851-.4797142 1.6907888-.3142174.3881242-.6996212.7114099-1.1525839.9703105.6211801.2557268 1.1022547.6266212 1.4355155 1.1122299.3382485.4815279.5046522 1.1126832.5046522 1.8884782" fill="#181916"/><path d="m51.895 58.006h3.844v-13.564h-3.844z" fill="#181916"/><path d="m66.5510621 58.0064348-3.239205-4.4765777c-.1564285-.2072111-.3296335-.462031-.5418323-.764913-.208118-.3056025-.4144223-.6089379-.6098447-.9113665-.2013167-.3037888-.3881242-.5948819-.5635962-.8673851-.1695777-.2657018-.308323-.4810745-.3971926-.6347826.0253913.1537081.0412609.3699876.0575839.6483851.0140559.2802112.0253913.5821864.0371801.9122733.0140559.3282733.0226708.6683354.0226708 1.0174659v5.0769006h-3.604205v-13.5648509h3.3131118l2.9857454 4.0113726c.1550683.2053975.3405155.4611242.5504472.7762485.2149192.305149.4248509.6161925.6302484.9285962.2072112.3092299.3953789.6030435.5635963.8701056.1691242.2729566.292.4810746.3672671.6193665-.0253913-.1518944-.0453416-.3672671-.0557702-.6474783-.0126957-.2783975-.0290187-.5794658-.0457951-.9104596-.0072546-.3319006-.0136024-.6669752-.0136024-1.0174658v-4.6302857h3.6037515v13.5648509zm16.3080186-3.041969c-.3006149.7594721-.7241055 1.3860932-1.2627639 1.8689814-.5359379.481528-1.1630125.8351926-1.8966398 1.054646-.7336273.2176397-1.5189441.3309938-2.3740869.3309938-.8528758 0-1.6422733-.1133541-2.3659255-.3309938-.7241056-.2194534-1.3480062-.573118-1.8698882-1.054646-.5191615-.4828882-.9304099-1.1095093-1.2269441-1.8689814-.3051491-.7608323-.4493354-1.684441-.4493354-2.7513292v-7.7697391h3.8359006v7.7697391c0 .8388199.1727516 1.4989938.5141739 1.9750808.34641.4810745.8787205.7182112 1.6177888.7182112.7390684 0 1.2727392-.2371367 1.598292-.7182112.3314472-.476087.4983043-1.1362609.4983043-1.9750808v-7.7697391h3.8368075v7.7697391c0 1.0668882-.151441 1.9904969-.4556833 2.7513292m13.0529441-1.1231118c0 .7739814-.1410124 1.4364224-.4185031 1.9959379-.2770372.5536211-.6660683 1.0065839-1.1657329 1.3561677-.4942236.3436895-1.0836646.6071243-1.7678695.7757951-.6855653.1664037-1.4346087.2520993-2.2489441.2520993-1.0990808 0-2.1482858-.1614161-3.1489752-.4788074-1.0011429-.3164845-1.8562857-.7046087-2.571323-1.1693603l1.8245466-2.9467515c.2439379.1691242.5332174.3346211.8637578.4924099.3260062.1641367.670149.3110435 1.027441.4361864.3518509.1310372.7114099.2312422 1.0736894.3119503.3627329.0757205.6969006.1178882 1.0088509.1178882.6687889 0 1.1371677-.0666522 1.3820125-.1985963.253913-.1251429.3840434-.3518509.3840434-.6751367 0-.1265031-.0380869-.2462049-.1065528-.3482236-.0748136-.1033788-.2013167-.2058509-.3749751-.3024285-.173205-.0979379-.4035404-.1936087-.7037019-.2915466-.297441-.0934037-.6728695-.1958758-1.1249254-.3006149-.8134286-.1904348-1.5261988-.3971926-2.1287889-.6175528-.6130186-.2199068-1.1149503-.4955839-1.5116894-.8252174-.4021801-.3282733-.7050621-.7250124-.9059255-1.1947516-.1976894-.462031-.2992546-1.035149-.2992546-1.7202608 0-.6325156.1260497-1.2142485.3763354-1.744292.2561801-.5314037.613472-.9811925 1.0791304-1.3570745.4638447-.3754286 1.0229068-.6638012 1.6830808-.8714658.6601739-.208118 1.3956149-.3119503 2.2108571-.3119503 1.1639193 0 2.1727702.1364782 3.0324472.4071677.8592236.2720497 1.6527019.6583602 2.374087 1.1616521l-1.8218261 2.9462982c-.6080311-.4107951-1.2124348-.7286398-1.8209193-.9467329-.6071242-.2208137-1.2609503-.3305404-1.9573975-.3305404-.5694907 0-.9431056.0766273-1.1235652.2303354-.178646.1577888-.2688758.3577453-.2688758.6034969 0 .1274099.034913.2434845.1020186.3355279.0684659.0983913.194969.1890746.3563851.27341.1722982.0811615.3999131.170031.678764.2548198.2838385.0811615.6506522.1772858 1.0877453.2793044.8524224.2063043 1.5923976.4307453 2.2113106.6764969.6193665.248472 1.1290062.5345776 1.5284658.8710124.4021802.3396087.6996212.7404286.8945901 1.2047267.191795.465205.2901863 1.0129317.2901863 1.6486211" fill="#181916"/><path d="m42.6038882 73c-2.2947391 0-3.841795-1.5475093-3.841795-4.3165217v-5.3348944h1.9007205v5.3076894c0 1.5203043.7327205 2.4847205 1.9410745 2.4847205 1.2079006 0 1.9542236-.9372112 1.9542236-2.4575155v-5.3348944h1.9007205v5.3076894c0 2.7554099-1.4391429 4.3437267-3.8549441 4.3437267m12.2309006-.1491739-3.4890372-5.1848137c-.2307889-.3536646-.5431926-.8283913-.6651615-1.0727826 0 .3527578.0272049 1.5470559.0272049 2.076646v4.1809503h-1.8730621v-9.5022422h1.8191056l3.3661615 5.0229441c.2307888.3527577.5427391.8279378.6647081 1.0723291 0-.3532111-.0267516-1.5479627-.0267516-2.0770993v-4.0181739h1.8735155v9.5022422z" fill="#2f83b9"/><path d="m59.111 72.851h1.9v-9.502h-1.9z" fill="#2f83b9"/><path d="m68.1375652 72.8508261h-1.8458571l-3.3802174-9.5022422h2.1043043l1.7919007 5.4976708c.1759254.52959.3659068 1.2219565.4475217 1.5611118.0816149-.3527578.2579938-1.0038634.4343727-1.5611118l1.7510931-5.4976708h2.076646z" fill="#2f83b9"/><path d="m73.282 72.851v-9.502h6.598v1.859h-4.697v1.643h2.728v1.846h-2.728v2.294h4.9v1.86z" fill="#2f83b9"/><path d="m86.4904907 65.1948944h-2.4842671v2.4434596h2.4842671c.8823478 0 1.3575279-.4071677 1.3575279-1.235559 0-.8546894-.5159875-1.2079006-1.3575279-1.2079006zm1.1262857 7.6559317-1.6966832-3.4210249h-1.9138696v3.4210249h-1.9002671v-9.5022422h4.4253416c1.7919007 0 3.2713976.9911677 3.2713976 3.0138571 0 1.425087-.6107516 2.3210373-1.8191056 2.7966708l1.8191056 3.6917143zm7.4119938.1491739c-1.5883168 0-2.9725963-.6651615-3.6921677-1.7238882l1.3711304-1.2215031c.6651615.7735279 1.5203044 1.0863851 2.4294037 1.0863851 1.1271926 0 1.6567827-.3128572 1.6567827-1.0319752 0-.6107515-.3260063-.8823478-2.1179069-1.2895155-1.7510931-.4071677-2.9730497-.9639627-2.9730497-2.8370248 0-1.7243417 1.5207578-2.7826149 3.3938199-2.7826149 1.4794969 0 2.565882.5563416 3.4613789 1.4930993l-1.370677 1.330323c-.611205-.624354-1.289969-.9780186-2.1587143-.9780186-1.0179193 0-1.3570745.4348261-1.3570745.8555963 0 .597149.4067142.7871304 1.9138695 1.1403416 1.5067019.3527577 3.1761801.8687453 3.1761801 2.9317888 0 1.8055031-1.1398882 3.0270062-3.7329751 3.0270062" fill="#2f83b9"/><path d="m100.907 72.851h1.9v-9.502h-1.9z" fill="#2f83b9"/><path d="m109.404 65.222v7.629h-1.9v-7.629h-2.728v-1.873h7.357v1.873z" fill="#2f83b9"/><path d="m118.540211 69.090646v3.7601801h-1.90072v-3.7193727l-3.596951-5.7828695h2.185466l1.343926 2.2539316c.339155.5699441.854689 1.5062485 1.031521 1.8594597.176379-.3532112.678764-1.262764 1.031522-1.8594597l1.343926-2.2539316h2.15826z" fill="#2f83b9"/><path d="m28.3317081 59.3734845c0-.7263727.5898944-1.3153603 1.3162671-1.3153603.7231987 0 1.3112795.5889876 1.3112795 1.3153603 0 .7241056-.5880808 1.3130931-1.3112795 1.3130931-.7263727 0-1.3162671-.5889875-1.3162671-1.3130931m-28.3317081-29.0970746c0-.7250124.584-1.3144534 1.31218634-1.3144534.72773291 0 1.3112795.589441 1.3112795 1.3144534 0 .724559-.58354659 1.3135466-1.3112795 1.3135466-.72818634 0-1.31218634-.5889876-1.31218634-1.3135466" fill="#bf282b"/></g></svg>